trial_1
version=1
nRows=9
nColumns=49
inDegrees=yes
endheader
time	/jointset/bb/crank_angle/value	/jointset/bb/crank_angle/speed	/jointset/spindle/pedal_angle_r/value	/jointset/spindle/pedal_angle_r/speed	/jointset/ground_pelvis/pelvis_tilt/value	/jointset/ground_pelvis/pelvis_tilt/speed	/jointset/ground_pelvis/pelvis_list/value	/jointset/ground_pelvis/pelvis_list/speed	/jointset/ground_pelvis/pelvis_rotation/value	/jointset/ground_pelvis/pelvis_rotation/speed	/jointset/ground_pelvis/pelvis_tx/value	/jointset/ground_pelvis/pelvis_tx/speed	/jointset/ground_pelvis/pelvis_ty/value	/jointset/ground_pelvis/pelvis_ty/speed	/jointset/ground_pelvis/pelvis_tz/value	/jointset/ground_pelvis/pelvis_tz/speed	/jointset/hip_r/hip_angle_r/value	/jointset/hip_r/hip_angle_r/speed	/jointset/hip_r/hip_adduction_r/value	/jointset/hip_r/hip_adduction_r/speed	/jointset/hip_r/hip_rotation_r/value	/jointset/hip_r/hip_rotation_r/speed	/jointset/knee_r/knee_angle_r/value	/jointset/knee_r/knee_angle_r/speed	/jointset/knee_r/tib_tx_r/value	/jointset/knee_r/tib_tx_r/speed	/jointset/knee_r/tib_ty_r/value	/jointset/knee_r/tib_ty_r/speed	/jointset/tib_pat_r/pat_angle_r/value	/jointset/tib_pat_r/pat_angle_r/speed	/jointset/tib_pat_r/pat_tx_r/value	/jointset/tib_pat_r/pat_tx_r/speed	/jointset/tib_pat_r/pat_ty_r/value	/jointset/tib_pat_r/pat_ty_r/speed	/jointset/ankle_r/ankle_angle_r/value	/jointset/ankle_r/ankle_angle_r/speed	/jointset/subtalar_r/subtalar_angle_r/value	/jointset/subtalar_r/subtalar_angle_r/speed	/jointset/mtp_r/mtp_angle_r/value	/jointset/mtp_r/mtp_angle_r/speed	/forceset/bifemlh_r/activation	/forceset/bifemlh_r/fiber_length	/forceset/bifemsh_r/activation	/forceset/bifemsh_r/fiber_length	/forceset/glut_max2_r/activation	/forceset/glut_max2_r/fiber_length	/forceset/vas_int_r/activation	/forceset/vas_int_r/fiber_length
      2.25780927	  -1128.74839631	   -479.99997653	   1132.61626839	    577.47282541	      0.00000000	     -0.00000000	     -0.00000000	      0.00000000	     -0.00000000	      0.00000000	     -0.10000000	      0.00000000	     -0.05000000	      0.00000000	      0.00000000	      0.00000000	     79.38966629	   -116.05505109	      4.23257024	      2.01070670	     -2.27470644	     21.13951026	    -98.75460915	    253.29266744	      0.00235761	      0.05090626	     -0.48896875	      0.08737535	     17.60132330	     -1.06175437	      0.02926721	      0.10539059	     -0.02310316	      0.01387926	     23.79993746	    -41.29714091	     -0.00000000	      0.00000000	      0.00000000	      0.00000000	     -0.26525083	      0.13964118	     -0.26525083	      0.14866156	     -0.26525083	      0.15461143	     -0.26525083	      0.15295002
      2.25880181	  -1129.22481660	   -479.99997653	   1133.18927773	    577.15720399	      0.00000000	     -0.00000000	     -0.00000000	      0.00000000	     -0.00000000	      0.00000000	     -0.10000000	      0.00000000	     -0.05000000	      0.00000000	      0.00000000	      0.00000000	     79.27374111	   -117.53563480	      4.23456328	      2.00528449	     -2.25371298	     21.16277991	    -98.50278436	    254.13939572	      0.00240797	      0.05057774	     -0.48888186	      0.08770320	     17.60026733	     -1.06598961	      0.02937186	      0.10548416	     -0.02308942	      0.01380694	     23.75910804	    -40.97466933	     -0.00000000	      0.00000000	      0.00000000	      0.00000000	     -0.26537862	      0.13961524	     -0.26537862	      0.14873621	     -0.26537862	      0.15456408	     -0.26537862	      0.15278211
      2.25979435	  -1129.70123690	   -479.99997653	   1133.76197530	    576.84459303	      0.00000000	     -0.00000000	     -0.00000000	      0.00000000	     -0.00000000	      0.00000000	     -0.10000000	      0.00000000	     -0.05000000	      0.00000000	      0.00000000	      0.00000000	     79.15635156	   -119.00577465	      4.23655081	      1.99960180	     -2.23269676	     21.18535738	    -98.25012452	    254.97528464	      0.00245801	      0.05024313	     -0.48879465	      0.08802634	     17.59920737	     -1.06979540	      0.02947660	      0.10557140	     -0.02307575	      0.01373208	     23.71860043	    -40.64869637	     -0.00000000	      0.00000000	      0.00000000	      0.00000000	     -0.26550641	      0.13958885	     -0.26550641	      0.14881176	     -0.26550641	      0.15451598	     -0.26550641	      0.15269114
      2.26081051	  -1130.18899212	   -479.99997653	   1134.34797854	    576.52766262	      0.00000000	     -0.00000000	     -0.00000000	      0.00000000	     -0.00000000	      0.00000000	     -0.10000000	      0.00000000	     -0.05000000	      0.00000000	      0.00000000	      0.00000000	     79.03466291	   -120.50003618	      4.23857965	      1.99351693	     -2.21115767	     21.20777410	    -97.99059959	    255.81987732	      0.00250888	      0.04989434	     -0.48870504	      0.08835228	     17.59811850	     -1.07323895	      0.02958392	      0.10565422	     -0.02306184	      0.01365284	     23.67746604	    -40.31142502	     -0.00000000	      0.00000000	      0.00000000	      0.00000000	     -0.26563724	      0.13956139	     -0.26563724	      0.14889004	     -0.26563724	      0.15446594	     -0.26563724	      0.15251736
      2.26182667	  -1130.67674734	   -479.99997653	   1134.93366133	    576.21388538	      0.00000000	     -0.00000000	     -0.00000000	      0.00000000	     -0.00000000	      0.00000000	     -0.10000000	      0.00000000	     -0.05000000	      0.00000000	      0.00000000	      0.00000000	     78.91146144	   -121.98327981	      4.24060218	      1.98716488	     -2.18959615	     21.22950403	    -97.73022215	    256.65320123	      0.00255940	      0.04953938	     -0.48861510	      0.08867325	     17.59702637	     -1.07621645	      0.02969132	      0.10573055	     -0.02304801	      0.01357094	     23.63667616	    -39.97065363	     -0.00000000	      0.00000000	      0.00000000	      0.00000000	     -0.26576807	      0.13953347	     -0.26576807	      0.14896926	     -0.26576807	      0.15441511	     -0.26576807	      0.15242386
      2.26284282	  -1131.16450256	   -479.99997653	   1135.51902687	    575.90325865	      0.00000000	     -0.00000000	     -0.00000000	      0.00000000	     -0.00000000	      0.00000000	     -0.10000000	      0.00000000	     -0.05000000	      0.00000000	      0.00000000	      0.00000000	     78.78675838	   -123.45547296	      4.24261811	      1.98054863	     -2.16801288	     21.25056633	    -97.46900362	    257.47530267	      0.00260956	      0.04917834	     -0.48852483	      0.08898924	     17.59593145	     -1.07872003	      0.02979879	      0.10580047	     -0.02303426	      0.01348641	     23.59623430	    -39.62646577	     -0.00000000	      0.00000000	      0.00000000	     -0.00000000	     -0.26589890	      0.13950510	     -0.26589890	      0.14904942	     -0.26589890	      0.15436348	     -0.26589890	      0.15224354
      2.26385898	  -1131.65225778	   -479.99997653	   1136.10407837	    575.59577880	      0.00000000	     -0.00000000	     -0.00000000	      0.00000000	     -0.00000000	      0.00000000	     -0.10000000	      0.00000000	     -0.05000000	      0.00000000	      0.00000000	      0.00000000	     78.66056497	   -124.91658524	      4.24462718	      1.97367122	     -2.14640855	     21.27097994	    -97.20695539	    258.28622758	      0.00265935	      0.04881133	     -0.48843424	      0.08930023	     17.59483423	     -1.08074190	      0.02990634	      0.10586404	     -0.02302060	      0.01339925	     23.55614389	    -39.27894335	     -0.00000000	      0.00000000	      0.00000000	     -0.00000000	     -0.26602973	      0.13947630	     -0.26602973	      0.14913052	     -0.26602973	      0.15431106	     -0.26602973	      0.15215286
      2.26486781	  -1132.13649463	   -479.99997653	   1136.68460216	    575.29362529	      0.00000000	     -0.00000000	     -0.00000000	      0.00000000	     -0.00000000	      0.00000000	     -0.10000000	      0.00000000	     -0.05000000	      0.00000000	      0.00000000	      0.00000000	     78.53381870	   -126.35616878	      4.24661472	      1.96658805	     -2.12493986	     21.29062300	    -96.94598786	    259.08029201	      0.00270840	      0.04844116	     -0.48834400	      0.08960401	     17.59374314	     -1.08226515	      0.03001316	      0.10592094	     -0.02300713	      0.01331011	     23.51669362	    -38.93070843	     -0.00000000	      0.00000000	      0.00000000	     -0.00000000	     -0.26615961	      0.13944726	     -0.26615961	      0.14921197	     -0.26615961	      0.15425823	     -0.26615961	      0.15197843
      2.26587663	  -1132.62073148	   -479.99997653	   1137.26482268	    574.99456349	      0.00000000	     -0.00000000	     -0.00000000	      0.00000000	     -0.00000000	      0.00000000	     -0.10000000	      0.00000000	     -0.05000000	      0.00000000	      0.00000000	      0.00000000	     78.40562568	   -127.78477729	      4.24859499	      1.95925344	     -2.10345165	     21.30966307	    -96.68422478	    259.86342961	      0.00275708	      0.04806532	     -0.48825346	      0.08990283	     17.59265076	     -1.08329872	      0.03012005	      0.10597174	     -0.02299375	      0.01321839	     23.47759625	    -38.57934306	     -0.00000000	      0.00000000	      0.00000000	     -0.00000000	     -0.26628950	      0.13941780	     -0.26628950	      0.14929435	     -0.26628950	      0.15420461	     -0.26628950	      0.15188113
